<?xml version="1.0" encoding="utf-8"?>
<!-- Svg Vector Icons : http://www.onlinewebfonts.com/icon -->
<!DOCTYPE svg PUBLIC "-//W3C//DTD SVG 1.1//EN" "http://www.w3.org/Graphics/SVG/1.1/DTD/svg11.dtd">
<svg version="1.1" xmlns="http://www.w3.org/2000/svg" xmlns:xlink="http://www.w3.org/1999/xlink" x="0px" y="0px" viewBox="0 0 256 256" enable-background="new 0 0 256 256" xml:space="preserve">
<metadata> Svg Vector Icons : http://www.onlinewebfonts.com/icon </metadata>
<g><g><g><path fill="#000000" d="M73.2,10.5c-7.4,1.8-13.5,7.6-15.9,15c-0.8,2.5-1,4.7-1.2,12.8l-0.3,9.7l-7.7,0.2c-8.3,0.1-9.4,0.4-12.2,3.1c-2.3,2.1-3.3,4.5-3.3,8.1s1,6,3.3,8.1c2.8,2.6,3.9,3,12,3.1c7.5,0.2,7.5,0.2,7.5,1.2c0,0.9-0.3,1.1-1.8,1.4c-4.4,0.7-9.5,5-11.8,9.9c-1.2,2.7-1.4,3.5-1.4,7.2c0,2.9,0.2,4.8,0.8,6.3c2,5.1,6.5,9.4,11.5,11l2.9,0.9l0.3,3.3c1.4,15.3,9.2,29.8,20.9,38.5c1.4,1.1,1.7,1.6,1.7,2.9c0,1.2-0.2,1.6-1,1.8c-1.7,0.5-6,3.3-7.9,5.2c-2.4,2.3-5.2,6.6-5.8,9.2c-0.6,2.2-0.6,2.2-4.9,4.5c-10,5.2-18.1,11.3-25.8,19.3c-12.3,12.8-19.9,27.7-22.6,44.4c-1,5.8-0.6,7,2.1,7.9c2.2,0.7,188.9,0.8,191.6,0.1c2.5-0.7,3.3-2.1,2.9-5.6c-0.6-5.3-0.3-4.9-5-4.9h-4.2l0.3,1.6l0.3,1.6h-90c-49.5,0-89.9-0.2-89.9-0.4c0-0.2,0.6-2.5,1.2-5.2c5.2-20.5,18.5-37.7,38.2-49.4c2.5-1.5,4.8-2.7,5-2.6c0.2,0,1.1,2.4,2,5.3c3.2,10.6,10.4,29,11.8,30.2c1.8,1.5,3.3,1.1,6.9-2.1c13-11.3,16.7-14.2,22.2-17.2l3.1-1.7l3.1,1.7c1.8,1,4.8,2.9,6.8,4.4c3.4,2.4,6,4.7,15.4,12.8c5.7,4.9,6.5,4.3,11.6-8.7c3.7-9.4,8.3-22.5,8.3-23.8c0-0.9,0.1-0.8,2.7,0.5c6.3,3.2,16.6,11.1,21.4,16.3c1.4,1.6,2.7,2.9,2.9,2.9c0.2,0,0.3-2.4,0.3-5.4v-5.4l-2.4-2.3c-4.8-4.6-13.5-10.6-20.7-14.6c-3.3-1.8-3.5-1.9-4.1-4.2c-1.3-5-6.2-10.5-11.9-13.5c-2.8-1.4-2.9-1.5-2.9-3.3c0-1.6,0.2-2,1.7-3c2.9-2,10.1-10,12.3-13.7c4.3-7.2,7.2-15.8,8-23.5l0.4-3.4l2.7-1.1c5.5-2.2,9-5.7,10.9-10.7c1.4-3.8,1.2-9.9-0.6-13.6c-2.1-4.6-6.6-8.6-11.1-10c-1.4-0.5-1.8-0.8-1.8-1.7v-1.1l7.5-0.2c8.1-0.1,9.2-0.5,12-3.1c2.3-2.1,3.3-4.5,3.3-8.1s-1-6-3.3-8.1c-2.8-2.6-4-3-11.7-3.1l-7.2-0.2l-0.3-9.7c-0.2-8.3-0.4-10.2-1.2-12.8c-2.4-7.7-8.9-13.5-16.6-15.1C141,9.7,76.4,9.7,73.2,10.5z M146,18.5c3.2,1.5,5.9,4.2,7.4,7.3l1.3,2.8v9.8v9.8h-45.4H63.8v-9.8v-9.8l1.3-2.8c1.3-2.7,3.9-5.5,6.2-6.7c3.2-1.7,3.9-1.8,38.7-1.7C143.5,17.5,143.9,17.5,146,18.5z M175.6,56.1c1.2,0.5,2.2,2.2,2.2,3.4c0,1.2-1,2.9-2.2,3.4c-0.8,0.4-19.7,0.5-66.8,0.5s-66-0.1-66.8-0.5c-1.2-0.5-2.2-2.2-2.2-3.4c0-1.2,1-2.9,2-3.4C43.3,55.4,174.1,55.4,175.6,56.1z M154.4,91.9c0,13.5-0.2,21.7-0.6,23.7c-2.2,12.3-9,23.1-18.3,29.6c-3.4,2.3-9.4,5-14.3,6.3c-4.2,1.1-5.4,1.2-12.7,1.2c-7.2,0-8.5-0.1-12.7-1.2c-16.8-4.5-27.6-16.1-31.9-34.5c-0.7-3-0.8-6.6-1-24.6l-0.2-21.1h45.8h45.8L154.4,91.9z M54.6,90.6c0,5.1-0.2,9.2-0.4,9.2c-0.8,0-4.2-2.7-5.2-4.2c-0.9-1.3-1.1-2.1-1.1-5c0-2.9,0.2-3.7,1.1-5c1.1-1.5,4.4-4.2,5.2-4.2C54.4,81.4,54.6,85.6,54.6,90.6z M167.2,85.7c3.3,4.5,1.8,10.3-3.2,13.1l-1.9,1.1v-9v-9l1.9,1.1C165,83.5,166.5,84.7,167.2,85.7z M131.2,168.6c-1.7,6.8-6.9,13.6-12.6,16.4c-6.5,3.2-12.5,3.2-19,0c-5.9-3-11-9.6-12.9-17.1c-0.4-1.6-0.7-4.8-0.7-7.5c0-4.4,0.1-4.8,0.8-4.5c13.1,5.1,26.3,5.7,38.9,1.7c2.4-0.8,4.7-1.6,5-1.9c0.6-0.4,0.7,0.3,0.8,5.2C131.6,164,131.5,167.4,131.2,168.6z M80,173.3c1.2,4.3,4,8.9,7.1,12.1c2.6,2.7,7.2,5.9,9.8,6.8c0.9,0.3,1.6,0.7,1.6,0.9c0,0.1-1.2,1.1-2.6,2c-3.6,2.4-7.6,5.4-11.6,8.9c-1.8,1.6-3.5,2.9-3.6,2.7c-0.5-0.5-5.8-14.7-7.8-20.9c-2.5-7.6-3-12-1.8-15.1c0.9-2.3,3.5-5.1,5.8-6.3l1.7-0.8l0.3,3.2C78.8,168.6,79.4,171.5,80,173.3z M144.7,167c3.8,3.9,4,8.5,0.8,18.4c-1.8,5.4-7.6,20.9-8.1,21.4c-0.1,0.1-1.6-1-3.3-2.5c-4-3.5-8.4-6.9-11.8-9.1c-1.5-1-2.7-1.9-2.6-2c0-0.1,1.5-1,3.3-1.8c4.7-2.2,10.6-8.2,12.9-13c2-4.1,3.1-8.1,3.1-11.1c0-3.5,0.2-3.8,2.3-2.7C142.3,164.9,143.8,166.1,144.7,167z"/><path fill="#000000" d="M195.1,75.5c-2,1.2-2,1.5-2.1,14.1v12.1h-2.5c-2,0-2.8,0.2-3.8,1.1l-1.3,1.1l-0.2,10.8l-0.1,10.8l-2.1,1.4c-2.4,1.5-4,3.6-4.7,6.2c-0.3,1-0.5,10.5-0.5,24.3c0,20.9,0.1,22.7,0.9,24.5c0.8,1.9,3.5,4.5,5.4,5.4l1.1,0.5l0,19.7c0,22,0.1,22.5,2.7,23.4c2.3,0.8,45.7,0.8,48,0c2.6-0.9,2.7-1.5,2.7-23.4l0-19.7l1.1-0.5c2.1-0.9,4.8-3.8,5.6-5.8c0.6-1.7,0.7-4.8,0.6-25.3l-0.1-23.3l-1.4-2.3c-0.8-1.3-2.3-2.9-3.5-3.6l-2.1-1.4l-0.2-3.2c-0.2-2.8-0.4-3.4-1.5-4.3c-1.6-1.3-3.1-1.3-4.7,0c-1.1,0.9-1.3,1.6-1.5,3.9l-0.2,2.9h-3.6h-3.6V119c0-3.1-0.2-6.4-0.5-7.2c-0.7-1.9-2.8-2.9-4.7-2.2c-2.1,0.7-2.6,2.6-2.6,9.3v5.8h-3.7h-3.7v-9.1c0-5-0.2-9.9-0.5-10.8c-0.6-2.1-2.4-3.1-5.5-3.1h-1.8V90.4c0-12.6-0.2-13.9-2.6-14.9C196,74.8,196.2,74.8,195.1,75.5z M200.4,117v7.3h-3.7H193V117v-7.3l3.7,0h3.7V117z M236.9,132.8c1.8,1.3,1.8,2,1.8,24.5c0,21.5,0,21.9-1,23.1c-0.5,0.6-1.3,1.2-1.8,1.2c-0.5,0-1.5,0.2-2.4,0.5c-2.7,1-2.8,1.5-2.8,22.6v18.9h-18.9H193v-18.6c0-11.7-0.2-19.2-0.5-20.3c-0.4-1.4-0.8-1.9-2-2.4c-0.9-0.4-2-0.6-2.5-0.6s-1.3-0.6-1.8-1.2c-1-1.2-1-1.7-1-23.5v-22.2l1.2-1.2l1.2-1.2h24.3C230.2,132.2,236.3,132.3,236.9,132.8z"/><path fill="#000000" d="M195,140c-1.3,0.5-2.5,2.2-2.5,3.6c0,0.6,0.5,1.6,1.1,2.3l1.1,1.3h16.8h16.8l1.2-1.1c2.2-2.1,1.3-5.2-1.6-6C226.1,139.4,196.4,139.4,195,140z"/><path fill="#000000" d="M193.9,155.8c-0.9,0.7-1.8,2.3-1.8,3.3c0,0.4,0.6,1.3,1.2,2.1l1.2,1.4h17h17.1l1.1-1.2c0.7-0.7,1.2-1.7,1.2-2.5c0-0.9-0.4-1.8-1.2-2.5l-1.1-1.2h-17C199,155.3,194.4,155.4,193.9,155.8z"/><path fill="#000000" d="M193.2,171.9c-1.4,1.7-1.3,3.1,0.3,4.8l1,1.1h17h17l1.1-1.2c0.7-0.7,1.2-1.7,1.2-2.5c0-0.9-0.4-1.8-1.2-2.5l-1.1-1.2h-17.1h-17L193.2,171.9z"/></g></g></g>
</svg>