<?xml version="1.0" encoding="UTF-8"?>
<svg id="Ebene_1" data-name="Ebene 1" xmlns="http://www.w3.org/2000/svg" viewBox="0 0 884.52 153.11">
  <path d="m656.26,151.65h-21.1v-78.74h20.94v4.41c7.14-4.2,13.7-6.3,19.68-6.3,10.5,0,17.74,3.1,21.73,9.29,3.99,6.2,5.98,15.75,5.98,28.66v42.68h-21.1v-42.05c0-6.72-.79-11.68-2.36-14.88-1.57-3.2-4.72-4.8-9.45-4.8-4.31,0-8.45.74-12.44,2.21l-1.89.63v58.9Z" style="fill: #5b6166;"/>
  <path d="m785.71,41.42v110.24h-20.94v-3.31c-7.35,3.47-13.7,5.2-19.05,5.2-11.44,0-19.42-3.31-23.94-9.92-4.52-6.61-6.77-17.09-6.77-31.42s2.7-24.78,8.11-31.34c5.41-6.56,13.57-9.84,24.49-9.84,3.36,0,8.03.53,14.02,1.58l2.99.63v-31.81h21.1Zm-23.31,91.34l2.2-.47v-41.42c-5.77-1.05-10.92-1.58-15.43-1.58-8.5,0-12.76,7.56-12.76,22.68,0,8.19.94,14.02,2.83,17.48,1.89,3.47,5.01,5.2,9.37,5.2s8.95-.63,13.78-1.89Z" style="fill: #5b6166;"/>
  <circle cx="611.56" cy="50.74" r="13.27" style="fill: #5b6166;"/>
  <path d="m415.67,93.59c6.76-5.67,10.18-13.37,10.18-22.92,0-10.79-3.05-18.81-9.06-23.83-5.89-4.93-15.19-7.42-27.63-7.42s-23.36,1.97-33.26,5.85l-1.68.66,1.79,20.42,6.71-1.03c7.99-1.44,15.64-2.17,22.73-2.17,11.83,0,13.2,5.01,13.2,8.77,0,2.98-1.11,5.64-3.4,8.16-2.2,2.44-4.63,3.62-7.42,3.62h-23.38v22.78h23.38c3.97,0,7.05.95,9.41,2.92,2.22,1.84,3.3,4.28,3.3,7.44,0,5.33-1.57,11.45-13.81,11.45-7.82,0-17.65-1-29.23-2.97l-2.63-.45-1.41,21.23,6.96,1.73c10.22,2.77,20.13,4.17,29.46,4.17,13,0,22.66-2.99,28.71-8.87,6.08-5.9,9.16-14.9,9.16-26.77,0-7.01-1.21-12.06-3.7-15.45-1.89-2.57-4.64-4.99-8.37-7.33Z" style="fill: #67a2c0;"/>
  <path d="m520.9,69.94c-1.32-6.36-3.77-11.98-7.27-16.71-3.61-4.85-8.7-8.38-15.14-10.47-6.21-2.01-14.15-3.03-23.59-3.03h-38.5v111.97h38.5c9.7,0,17.83-1.19,24.16-3.54,6.55-2.43,11.64-6.41,15.13-11.83,3.36-5.23,5.68-11.25,6.88-17.89,1.17-6.47,1.77-14.7,1.77-24.46s-.65-17.88-1.94-24.05Zm-25.25,22.87c0,5.71-.11,10.34-.32,13.76-.68,7.9-2.37,13.34-5.06,16.22-3.08,3.44-8.25,5.19-15.39,5.19h-11.93V63.46h11.93c4.95,0,8.89.51,11.72,1.52,2.53.9,4.4,2.52,5.7,4.94,1.43,2.66,2.34,5.66,2.72,8.92.41,3.5.62,8.2.62,13.98Z" style="fill: #67a2c0;"/>
  <path d="m568.71,69.61c0-4.09.52-6.98,1.57-8.66,1.05-1.68,3.15-2.52,6.3-2.52s6.81.1,11.24.3c-.84-2.51-1.32-5.19-1.32-7.99,0-3.25.64-6.35,1.77-9.2l-3.02-.43c-5.98-1.05-10.87-1.57-14.65-1.57-8.61,0-14.59,2.15-17.95,6.46-3.36,4.31-5.04,12.13-5.04,23.46v3.46h-8.5v17.95h8.5v60.79h21.1v-60.79h19.05v-17.95h-19.05v-3.31Z" style="fill: #5b6166;"/>
  <path d="m611.56,75.88c-3.77,0-7.34-.85-10.55-2.34v78.11h21.1v-78.11c-3.21,1.49-6.78,2.34-10.55,2.34Z" style="fill: #5b6166;"/>
  <g>
    <path d="m799.77,39.98h21.35v21.82h-21.35v-21.82Zm0,32.18h21.35v79.49h-21.35v-79.49Z" style="fill: #5b6166;"/>
    <path d="m864.93,91.43v30.11c0,7.97,0,11.63,6.69,11.63,4.46,0,12.11-.32,12.11-.32l.96,18.32s-10.67,2.39-16.25,2.39c-19.28,0-24.85-7.33-24.85-30.27v-31.86h-9.4v-19.28h9.4v-22.3h21.35v22.3h19.59v19.28h-19.59Z" style="fill: #5b6166;"/>
  </g>
  <path d="m141.6,58.91c-5.66,0-11.07,1.01-16.09,2.86,2.02,3.11,3.2,6.82,3.2,10.81,0,11-8.92,19.92-19.92,19.92-3.99,0-7.69-1.18-10.81-3.2-1.85,5.01-2.86,10.43-2.86,16.09,0,25.66,20.81,46.47,46.47,46.47s46.47-20.81,46.47-46.47-20.81-46.47-46.47-46.47Z" style="fill: #5b6166;"/>
  <path d="m204.58,12.26l-16.03,26.05c-.6.98-1.76,1.43-2.84,1.11-.05-.02-.11-.03-.16-.05-10.84-3.26-22.23-5.29-33.86-6.13-1.33-.1-2.36-1.23-2.36-2.61V3.75c0-1.45,1.13-2.64,2.52-2.64,13.9.02,28,1.5,41.94,4.71,3.13.72,6.25,1.56,9.35,2.48,1.63.49,2.37,2.46,1.45,3.95Z" style="fill: #6eb260;"/>
  <path d="m282.69,70.45l-35.48,9.89c-.97.27-1.99-.09-2.62-.9-4.67-6.02-9.9-11.56-15.64-16.53-1.3-1.13-1.16-3.25.26-4.21l28.17-18.96c.94-.63,2.17-.56,3.02.19,5.97,5.27,11.55,11.02,16.63,17.21,2.47,2.98,4.82,6.06,7.06,9.23,1.05,1.48.31,3.6-1.4,4.08Z" style="fill: #6daca8;"/>
  <path d="m251.77,37.25l-28.39,19.11c-.86.58-1.96.56-2.8-.04-.18-.13-.35-.25-.53-.38-7.59-5.34-15.87-9.72-24.62-13.15-1.5-.59-2.09-2.49-1.22-3.9l16.08-26.14c.63-1.03,1.87-1.48,2.98-1.07,8.9,3.31,17.57,7.42,25.83,12.47,4.4,2.67,8.67,5.61,12.78,8.76,1.43,1.1,1.38,3.34-.11,4.34Z" style="fill: #6eaf88;"/>
  <path d="m302.16,108.45h-39.26c-1,0-1.9-.62-2.3-1.57-2.75-6.46-6.01-12.67-9.75-18.54-.95-1.49-.19-3.5,1.46-3.97l35.07-9.78c1.1-.31,2.25.18,2.83,1.19,4.62,8.03,10.3,19.93,14.25,28.95.76,1.74-.46,3.72-2.3,3.72Z" style="fill: #67a2c0;"/>
  <path d="m144.26,3.99v26.18c0,1.47-1.16,2.64-2.58,2.62-5.08-.08-10.14.07-15.16.43-6.63.53-13.19,1.49-19.62,2.89-.37.08-.74.16-1.11.24-1.03.24-2.09-.23-2.66-1.15l-12.63-20.53c-.89-1.44-.23-3.36,1.33-3.91,2.77-.99,5.56-1.89,8.37-2.71,7.64-2.21,15.38-3.85,23.17-4.98,6.08-.85,12.17-1.43,18.26-1.72,1.44-.07,2.64,1.14,2.64,2.64Z" style="fill: #b0c03c;"/>
  <path d="m97.1,35.19c.9,1.46.22,3.42-1.37,3.92-8.86,2.82-17.38,6.61-25.34,11.49-1.05.64-2.08,1.3-3.11,1.98-.84.56-1.91.57-2.74,0l-17.54-11.82c-1.45-.97-1.54-3.12-.21-4.26,3.27-2.79,6.66-5.44,10.18-7.89,7.86-5.54,16.28-10.18,25.02-13.97,1.13-.49,2.44-.05,3.1,1.02l12.01,19.53Z" style="fill: #e4ca00;"/>
  <path d="m21.57,106.98c3.84-8.05,8.29-15.71,13.34-22.82,1.05-1.48.32-3.6-1.39-4.08l-16.77-4.68c-1.1-.31-2.28.19-2.84,1.22-4.55,8.29-9.36,19.15-12.93,28.2-.68,1.73.55,3.62,2.35,3.62h15.99c.96,0,1.83-.57,2.26-1.46Z" style="fill: #ee713a;"/>
  <path d="m41.65,75.39c5.15-6.08,10.81-11.58,16.9-16.45,1.38-1.1,1.28-3.29-.18-4.27l-16.46-11.08c-.98-.66-2.28-.54-3.12.29-5.83,5.79-11.18,12.05-15.95,18.7-1.08,1.5-2.12,3.03-3.13,4.57-.99,1.5-.26,3.57,1.43,4.04l17.97,5.01c.93.26,1.91-.06,2.55-.81Z" style="fill: #eaa328;"/>
</svg>