<svg id="939adf18-ca95-48fd-a63a-e84c3b002a31" data-name="Ebene 1" xmlns="http://www.w3.org/2000/svg" width="135.72" height="49.01" viewBox="0 0 135.72 49.01"><title>Zeichenfläche 2</title><rect width="135.72" height="49.01" fill="#0078d4"/><path d="M33.95,23.6H20.64V13.85L33.95,12Zm0,12.9-13.31-1.9V24.38H33.95ZM19.87,23.6H9.55V15.38l10.33-1.45Zm0,10.92L9.55,33.08v-8.7H19.87Zm0,0" fill="#fff"/><path d="M48.27,19.31a4.91,4.91,0,0,1-2.5.65,3.64,3.64,0,0,1-1.87-.48,3.24,3.24,0,0,1-1.26-1.36,4.36,4.36,0,0,1-.44-2,4,4,0,0,1,1.09-2.88,3.69,3.69,0,0,1,2.79-1.14,4.68,4.68,0,0,1,2,.4v1A3.88,3.88,0,0,0,46,12.91a2.77,2.77,0,0,0-1.47.4,2.71,2.71,0,0,0-1,1.13,3.57,3.57,0,0,0-.37,1.62,3.27,3.27,0,0,0,.74,2.26,2.59,2.59,0,0,0,2,.83,3.09,3.09,0,0,0,1.52-.36V16.68H45.76v-.81h2.52Zm0,0" fill="#fff"/><path d="M54,17.34H50.23a2,2,0,0,0,.48,1.4,1.65,1.65,0,0,0,1.26.48,2.6,2.6,0,0,0,1.65-.59v.81a3,3,0,0,1-1.86.53A2.23,2.23,0,0,1,50,19.21a3.08,3.08,0,0,1-.64-2.07,3.34,3.34,0,0,1,.32-1.47,2.49,2.49,0,0,1,.88-1,2.26,2.26,0,0,1,1.25-.37,2,2,0,0,1,1.62.69A2.87,2.87,0,0,1,54,16.88Zm-.88-.73a1.82,1.82,0,0,0-.36-1.17,1.2,1.2,0,0,0-1-.41,1.37,1.37,0,0,0-1,.43,2,2,0,0,0-.53,1.15Zm0,0" fill="#fff"/><path d="M57.53,19.78a1.6,1.6,0,0,1-.8.18q-1.4,0-1.4-1.6V15.15h-.92v-.74h.92V13.09l.86-.28v1.6h1.35v.74H56.19V18.2a1.27,1.27,0,0,0,.18.78.74.74,0,0,0,.61.23.89.89,0,0,0,.55-.17Zm0,0" fill="#fff"/><path d="M62.19,12.47a.54.54,0,0,1-.17.4.58.58,0,0,1-.79,0,.54.54,0,0,1-.16-.41.55.55,0,0,1,.16-.4.53.53,0,0,1,.4-.17.56.56,0,0,1,.56.56ZM62,19.83h-.85V14.41H62Zm0,0" fill="#fff"/><path d="M66,19.78a1.6,1.6,0,0,1-.8.18q-1.4,0-1.4-1.6V15.15h-.92v-.74h.92V13.09l.86-.28v1.6H66v.74H64.63V18.2a1.27,1.27,0,0,0,.18.78.74.74,0,0,0,.61.23A.89.89,0,0,0,66,19Zm0,0" fill="#fff"/><path d="M74.48,17.1a3,3,0,0,1-.72,2.08,2.5,2.5,0,0,1-1.94.79,2.45,2.45,0,0,1-1.89-.76,2.85,2.85,0,0,1-.71-2,3,3,0,0,1,.72-2.13,2.59,2.59,0,0,1,2-.78,2.37,2.37,0,0,1,1.86.76,3,3,0,0,1,.67,2.06Zm-.88,0a2.41,2.41,0,0,0-.45-1.57A1.55,1.55,0,0,0,71.89,15a1.63,1.63,0,0,0-1.31.56,2.34,2.34,0,0,0-.48,1.57,2.23,2.23,0,0,0,.48,1.52,1.65,1.65,0,0,0,1.3.55,1.55,1.55,0,0,0,1.28-.54,2.39,2.39,0,0,0,.44-1.55Zm0,0" fill="#fff"/><path d="M80,19.83h-.85V16.74Q79.14,15,77.9,15a1.35,1.35,0,0,0-1.06.49,1.8,1.8,0,0,0-.42,1.23v3.09h-.85V14.41h.85v.9h0a1.91,1.91,0,0,1,1.75-1,1.61,1.61,0,0,1,1.34.58A2.6,2.6,0,0,1,80,16.51Zm0,0" fill="#fff"/><path d="M57.49,24.46,54.1,36.56H52.45L50,27.71a5.68,5.68,0,0,1-.18-1.22h0a7.6,7.6,0,0,1-.23,1.21l-2.48,8.87H45.43l-3.5-12.1h1.54L46,33.74A7.59,7.59,0,0,1,46.22,35h0a5.93,5.93,0,0,1,.25-1.21l2.66-9.28h1.35l2.53,9.35a6.73,6.73,0,0,1,.2,1.12h0a7.89,7.89,0,0,1,.23-1.16L56,24.46Zm0,0" fill="#fff"/><path d="M60.4,24.82a.86.86,0,0,1-.27.65.93.93,0,0,1-1.27,0,.93.93,0,0,1,0-1.28.85.85,0,0,1,.64-.27.89.89,0,0,1,.9.89Zm-.23,11.74H58.8V27.92h1.37Zm0,0" fill="#fff"/><path d="M69.44,36.56H68.07V31.63q0-2.74-2-2.74a2.17,2.17,0,0,0-1.69.77,2.86,2.86,0,0,0-.68,2v4.93H62.33V27.92h1.37v1.43h0a3.07,3.07,0,0,1,2.81-1.64,2.59,2.59,0,0,1,2.15.93,4.13,4.13,0,0,1,.74,2.63Zm0,0" fill="#fff"/><path d="M78.93,36.56H77.56V35.09h0a3.42,3.42,0,0,1-5.53.5,4.83,4.83,0,0,1-1-3.14A5.25,5.25,0,0,1,72.11,29,3.5,3.5,0,0,1,75,27.71a2.75,2.75,0,0,1,2.57,1.4h0V23.77h1.37Zm-1.37-3.91V31.38a2.42,2.42,0,0,0-.71-1.78,2.34,2.34,0,0,0-1.72-.71,2.37,2.37,0,0,0-2,.93,4,4,0,0,0-.73,2.56,3.69,3.69,0,0,0,.68,2.35,2.24,2.24,0,0,0,1.85.86,2.36,2.36,0,0,0,1.86-.83,3.07,3.07,0,0,0,.73-2.11Zm0,0" fill="#fff"/><path d="M89,32.21a4.69,4.69,0,0,1-1.16,3.31,4,4,0,0,1-3.1,1.25,3.94,3.94,0,0,1-3-1.22,4.53,4.53,0,0,1-1.13-3.21A4.77,4.77,0,0,1,81.73,29a4.17,4.17,0,0,1,3.2-1.24,3.8,3.8,0,0,1,3,1.2A4.75,4.75,0,0,1,89,32.21Zm-1.4.05a3.84,3.84,0,0,0-.71-2.5,2.5,2.5,0,0,0-2-.87,2.62,2.62,0,0,0-2.09.89A3.73,3.73,0,0,0,82,32.29a3.53,3.53,0,0,0,.77,2.43,2.64,2.64,0,0,0,2.09.87,2.5,2.5,0,0,0,2-.86,3.79,3.79,0,0,0,.71-2.47Zm0,0" fill="#fff"/><path d="M101.36,27.92,98.8,36.56H97.38l-1.76-6.19a4.3,4.3,0,0,1-.13-.79h0a3.79,3.79,0,0,1-.18.78l-1.91,6.2H92L89.4,27.92h1.44l1.76,6.5a4.71,4.71,0,0,1,.12.78h.07a3.52,3.52,0,0,1,.16-.79l2-6.48h1.25l1.78,6.51a4.75,4.75,0,0,1,.12.78h.07a3,3,0,0,1,.13-.78L100,27.92Zm0,0" fill="#fff"/><path d="M107.32,34.25a2.24,2.24,0,0,1-.86,1.82,3.49,3.49,0,0,1-2.28.7,4.19,4.19,0,0,1-2.12-.52V34.76a3.43,3.43,0,0,0,2.22.83q1.63,0,1.63-1.21a1.06,1.06,0,0,0-.32-.8,6,6,0,0,0-1.44-.83,4.31,4.31,0,0,1-1.61-1.05,2.43,2.43,0,0,1,.39-3.28,3.25,3.25,0,0,1,2.16-.72,4.07,4.07,0,0,1,1.83.4v1.39a3.18,3.18,0,0,0-1.94-.62,1.67,1.67,0,0,0-1.09.34,1.07,1.07,0,0,0-.41.87,1.18,1.18,0,0,0,.32.88,4.73,4.73,0,0,0,1.31.73,4.74,4.74,0,0,1,1.72,1.1,2.13,2.13,0,0,1,.49,1.44Zm0,0" fill="#fff"/><path d="M114.05,36.56V26.11a5.11,5.11,0,0,1-1.22.81,7.27,7.27,0,0,1-1.56.62v-1.4a9.52,9.52,0,0,0,1.95-.82,9,9,0,0,0,1.68-1.13h.52V36.56Zm0,0" fill="#fff"/><path d="M125.4,30.46a8.72,8.72,0,0,1-1,4.65,3.32,3.32,0,0,1-3,1.66,3.14,3.14,0,0,1-2.8-1.56,8.34,8.34,0,0,1-1-4.45,9.27,9.27,0,0,1,1-4.83,3.32,3.32,0,0,1,3-1.67q3.77,0,3.77,6.2Zm-1.4.13q0-5.16-2.43-5.16T119,30.69q0,4.9,2.52,4.9t2.48-5Zm0,0" fill="#fff"/></svg>